<svg width="22" height="21" viewBox="0 0 22 21" fill="none" xmlns="http://www.w3.org/2000/svg">
<path fill-rule="evenodd" clip-rule="evenodd" d="M0.0830791 15.5699C0.224479 15.3438 0.585834 15.1984 1.12001 14.9239C1.65419 14.6493 4.32506 13.3088 4.81211 13.1311C5.31486 12.9534 5.67621 12.8565 6.02186 13.4057C6.38321 13.9548 7.42014 15.1984 7.73436 15.5699C8.04858 15.9414 8.3628 15.9898 8.91269 15.7153C9.46258 15.4407 11.2065 14.8593 13.2647 12.9696C14.8829 11.4999 15.967 9.69093 16.2812 9.1418C16.5954 8.59266 16.3126 8.28579 16.0455 8.01123C15.7941 7.76896 15.4956 7.36519 15.2285 7.04217C14.9614 6.71915 14.8672 6.49303 14.6944 6.12156C14.5215 5.75008 14.6001 5.42706 14.7415 5.1525C14.8829 4.87793 15.9512 2.16456 16.4069 1.05014C16.8625 -0.0481346 17.3024 0.000318538 17.6323 0.000318538C17.9465 0.000318538 18.5279 0.0972247 18.5279 0.0972247C18.5279 0.0972247 19.6119 0.242584 20.1147 0.791719C20.6017 1.34085 22 2.68139 22 5.39476C22 8.10813 20.0675 10.7408 19.7847 11.0961C19.5177 11.4675 16.0455 17.2173 10.5466 19.43C5.04777 21.6427 5.04777 20.8997 4.05798 20.8028C3.06818 20.7059 0.852921 19.4623 0.3973 18.1864C-0.0583204 16.8943 -0.0583203 15.796 0.0830791 15.5699Z" fill="#279A2F"/>
</svg>
