<svg width="211" height="28" viewBox="0 0 211 28" fill="none" xmlns="http://www.w3.org/2000/svg">
<g clip-path="url(#clip0_4501_759)">
<path d="M58.5928 24.0392L60.9298 21.2221C62.5991 22.5478 64.2684 23.3764 66.2716 23.3764C67.9409 23.3764 68.9425 22.7135 68.9425 21.7192C68.9425 20.725 68.2748 20.2278 65.27 19.3993C61.5975 18.405 59.2605 17.4107 59.2605 13.9308C59.2605 10.6165 61.9314 8.62799 65.6039 8.62799C68.2748 8.62799 70.4449 9.45655 72.2811 10.948L70.278 13.9308C68.6086 12.7708 67.1063 12.1079 65.6039 12.1079C64.1015 12.1079 63.2669 12.7708 63.2669 13.7651C63.2669 14.925 64.1015 15.2565 67.1063 16.085C70.7788 17.0793 72.7819 18.405 72.7819 21.5535C72.7819 25.0335 70.111 27.022 66.1047 27.022C63.6007 27.022 60.7629 26.0278 58.5928 24.0392Z" fill="#010102"/>
<path d="M81.7962 17.7312C81.7962 12.5941 85.6356 8.45132 91.1443 8.45132C94.483 8.45132 96.4861 9.77702 98.1555 11.4341L95.8184 14.0855C94.483 12.7598 93.3144 12.097 91.1443 12.097C88.1396 12.097 85.9695 14.5827 85.9695 17.7312C85.9695 20.714 88.1396 23.3654 91.1443 23.3654C93.1475 23.3654 94.483 22.5368 95.8184 21.2112L98.3224 23.8625C96.4861 25.8511 94.483 26.8454 90.9774 26.8454C85.8026 27.0111 81.7962 22.8683 81.7962 17.7312Z" fill="#010102"/>
<path d="M112.678 8.78278H116.351L124.03 26.8454H119.856L118.187 22.8683H110.508L108.839 26.8454H104.833L112.678 8.78278ZM116.852 19.2226L114.515 13.4227L112.178 19.2226H116.852Z" fill="#010102"/>
<path d="M131.709 8.78278H135.381L143.894 19.7198V8.78278H147.734V26.6797H144.395L135.715 15.4113V26.6797H131.876V8.78278H131.709Z" fill="#010102"/>
<path d="M156.247 17.7312C156.247 12.5941 160.254 8.45132 165.762 8.45132C171.271 8.45132 175.278 12.5941 175.278 17.7312C175.278 22.8683 171.271 27.0111 165.762 27.0111C160.254 27.0111 156.247 22.8683 156.247 17.7312ZM171.271 17.7312C171.271 14.7484 168.934 12.097 165.762 12.097C162.591 12.097 160.421 14.5827 160.421 17.7312C160.421 20.714 162.758 23.3654 165.929 23.3654C168.934 23.3654 171.271 20.8797 171.271 17.7312Z" fill="#010102"/>
<path d="M183.791 8.78278H187.797V17.8969V26.6797H183.791V17.8969V8.78278Z" fill="#010102"/>
<path d="M197.646 8.78278H201.653V23.1997H210.667V26.8454H197.813V8.78278H197.646Z" fill="#010102"/>
<path d="M33.5485 9.6113L21.5294 25.0225C20.8617 25.8511 19.3593 26.5139 18.3578 26.5139H0.830037C-0.338478 26.5139 -0.338478 25.8511 0.663107 25.0225L18.8586 9.6113C19.3593 9.27987 20.3609 8.94845 21.0287 8.94845H32.7138C33.3815 8.94845 34.3831 8.61703 34.55 8.2856L40.5595 0.497136C40.8934 0.165712 41.3942 0 42.0619 0H50.7423C51.2431 0 51.7439 0.165712 51.577 0.497136L48.7392 8.2856C48.5722 8.61703 47.9045 8.94845 47.0698 8.94845H35.3847C34.717 8.94845 33.7154 9.27987 33.5485 9.6113Z" fill="#279A2F"/>
</g>
<defs>
<clipPath id="clip0_4501_759">
<rect width="210.5" height="27.0111" fill="white"/>
</clipPath>
</defs>
</svg>
