<svg width="26" height="23" viewBox="0 0 26 23" fill="none" xmlns="http://www.w3.org/2000/svg">
<path d="M15.1685 5.4779C15.1685 8.50179 12.7412 10.9558 9.75015 10.9558C6.75913 10.9558 4.33179 8.50179 4.33179 5.4779C4.33179 2.45402 6.75913 0 9.75015 0C12.7412 0 15.1685 2.45402 15.1685 5.4779Z" fill="#828282"/>
<path d="M14.3559 13.1429H5.14414C2.31055 13.1429 0 15.4788 0 18.3435V22.1786C0 22.6304 0.365625 23 0.8125 23H18.6875C19.1344 23 19.5 22.6304 19.5 22.1786V18.3435C19.5 15.4788 17.1895 13.1429 14.3559 13.1429Z" fill="#828282"/>
<path d="M25.7409 9.25647L21.9475 5.69866C21.7952 5.55491 21.5971 5.48303 21.394 5.48303C20.8557 5.48303 20.5815 5.94509 20.5815 6.30446V8.76875H16.2499C15.6507 8.76875 15.1682 9.2616 15.1682 9.86227C15.1682 10.4629 15.6507 10.9558 16.2499 10.9558H20.5815V13.4201C20.5815 13.877 20.9471 14.2415 21.394 14.2415C21.5971 14.2415 21.7952 14.1645 21.9475 14.0208L25.7409 10.4629C25.9034 10.3089 25.9999 10.0882 25.9999 9.86227C25.9999 9.63638 25.9034 9.41049 25.7409 9.25647Z" fill="#828282"/>
</svg>
